<svg xmlns="http://www.w3.org/2000/svg" viewBox="0 0 24 24" role="img" aria-labelledby="title">
  <title>Slack</title>
  <g fill="#36c5f0"><rect x="1" y="7" width="10" height="4" rx="2"/><path d="M7 3a2 2 0 1 1 4 0v2H9a2 2 0 0 1-2-2"/></g>
  <g fill="#2eb67d"><rect x="13" y="1" width="4" height="10" rx="2"/><path d="M21 7a2 2 0 1 1 0 4h-2V9a2 2 0 0 1 2-2"/></g>
  <g fill="#ecb22e"><rect x="13" y="13" width="10" height="4" rx="2"/><path d="M17 21a2 2 0 1 1-4 0v-2h2a2 2 0 0 1 2 2"/></g>
  <g fill="#e01e5a"><rect x="7" y="13" width="4" height="10" rx="2"/><path d="M3 17a2 2 0 1 1 0-4h2v2a2 2 0 0 1-2 2"/></g>
</svg>
